{
	"asset":{
		"generator":"Khronos glTF Blender I/O v4.5.47",
		"version":"2.0"
	},
	"scene":0,
	"scenes":[
		{
			"name":"Scene",
			"nodes":[
				0
			]
		}
	],
	"nodes":[
		{
			"mesh":0,
			"name":"origami_model",
			"rotation":[
				0.7071068286895752,
				0,
				0,
				0.7071068286895752
			]
		}
	],
	"meshes":[
		{
			"name":"origami_model",
			"primitives":[
				{
					"attributes":{
						"POSITION":0,
						"NORMAL":1
					},
					"indices":2
				}
			]
		}
	],
	"accessors":[
		{
			"bufferView":0,
			"componentType":5126,
			"count":180000,
			"max":[
				27.529314041137695,
				15.658284187316895,
				15.658284187316895
			],
			"min":[
				-26.948688507080078,
				-15.658284187316895,
				-15.658284187316895
			],
			"type":"VEC3"
		},
		{
			"bufferView":1,
			"componentType":5126,
			"count":180000,
			"type":"VEC3"
		},
		{
			"bufferView":2,
			"componentType":5125,
			"count":180000,
			"type":"SCALAR"
		}
	],
	"bufferViews":[
		{
			"buffer":0,
			"byteLength":2160000,
			"byteOffset":0,
			"target":34962
		},
		{
			"buffer":0,
			"byteLength":2160000,
			"byteOffset":2160000,
			"target":34962
		},
		{
			"buffer":0,
			"byteLength":720000,
			"byteOffset":4320000,
			"target":34963
		}
	],
	"buffers":[
		{
			"byteLength":5040000,
			"uri":"origami_model1.bin"
		}
	]
}
